<svg width="212" height="50" viewBox="0 0 212 50" fill="none" xmlns="http://www.w3.org/2000/svg">
<path d="M82.15 27.425C82.15 28.175 82 28.8333 81.7 29.4C81.4 29.9667 80.9833 30.4417 80.45 30.825C79.9333 31.2083 79.325 31.5 78.625 31.7C77.9417 31.9 77.2083 32 76.425 32H67.85V14.25H77.35C77.9667 14.25 78.525 14.3833 79.025 14.65C79.525 14.9167 79.95 15.2667 80.3 15.7C80.65 16.1167 80.9167 16.6 81.1 17.15C81.3 17.6833 81.4 18.225 81.4 18.775C81.4 19.6417 81.1833 20.4583 80.75 21.225C80.3167 21.975 79.6833 22.5333 78.85 22.9C79.8667 23.2 80.6667 23.7417 81.25 24.525C81.85 25.2917 82.15 26.2583 82.15 27.425ZM78.675 26.775C78.675 26.4583 78.6167 26.1583 78.5 25.875C78.4 25.575 78.2583 25.3167 78.075 25.1C77.8917 24.8833 77.675 24.7167 77.425 24.6C77.175 24.4667 76.9 24.4 76.6 24.4H71.3V29.075H76.425C76.7417 29.075 77.0333 29.0167 77.3 28.9C77.5833 28.7833 77.825 28.625 78.025 28.425C78.225 28.2083 78.3833 27.9583 78.5 27.675C78.6167 27.3917 78.675 27.0917 78.675 26.775ZM71.3 17.2V21.675H75.9C76.4833 21.675 76.975 21.475 77.375 21.075C77.7917 20.675 78 20.125 78 19.425C78 18.7417 77.8083 18.2 77.425 17.8C77.0583 17.4 76.6 17.2 76.05 17.2H71.3ZM90.5672 32.25C89.5005 32.25 88.5422 32.0667 87.6922 31.7C86.8422 31.3333 86.1172 30.8417 85.5172 30.225C84.9339 29.5917 84.4839 28.8667 84.1672 28.05C83.8505 27.2333 83.6922 26.375 83.6922 25.475C83.6922 24.5583 83.8505 23.6917 84.1672 22.875C84.4839 22.0583 84.9339 21.3417 85.5172 20.725C86.1172 20.0917 86.8422 19.5917 87.6922 19.225C88.5422 18.8583 89.5005 18.675 90.5672 18.675C91.6339 18.675 92.5839 18.8583 93.4172 19.225C94.2672 19.5917 94.9839 20.0917 95.5672 20.725C96.1672 21.3417 96.6255 22.0583 96.9422 22.875C97.2589 23.6917 97.4172 24.5583 97.4172 25.475C97.4172 26.375 97.2589 27.2333 96.9422 28.05C96.6255 28.8667 96.1755 29.5917 95.5922 30.225C95.0089 30.8417 94.2922 31.3333 93.4422 31.7C92.5922 32.0667 91.6339 32.25 90.5672 32.25ZM87.1422 25.475C87.1422 26.0583 87.2255 26.5917 87.3922 27.075C87.5755 27.5417 87.8172 27.95 88.1172 28.3C88.4339 28.65 88.8005 28.925 89.2172 29.125C89.6339 29.3083 90.0839 29.4 90.5672 29.4C91.0505 29.4 91.5005 29.3083 91.9172 29.125C92.3339 28.925 92.6922 28.65 92.9922 28.3C93.3089 27.95 93.5505 27.5333 93.7172 27.05C93.9005 26.5667 93.9922 26.0333 93.9922 25.45C93.9922 24.8833 93.9005 24.3583 93.7172 23.875C93.5505 23.3917 93.3089 22.975 92.9922 22.625C92.6922 22.275 92.3339 22.0083 91.9172 21.825C91.5005 21.625 91.0505 21.525 90.5672 21.525C90.0839 21.525 89.6339 21.625 89.2172 21.825C88.8005 22.025 88.4339 22.3 88.1172 22.65C87.8172 23 87.5755 23.4167 87.3922 23.9C87.2255 24.3833 87.1422 24.9083 87.1422 25.475ZM101.192 18.9L104.017 23L104.217 23.45L104.467 23L107.267 18.9H110.717L106.042 25.475L110.792 32H107.342L104.442 27.925L104.217 27.5L104.017 27.925L101.142 32H97.6918L102.417 25.475L97.7668 18.9H101.192ZM129.704 32H128.004V24.725C128.004 23.2417 127.746 22.1333 127.229 21.4C126.729 20.6667 125.987 20.3 125.004 20.3C124.521 20.3 124.037 20.4 123.554 20.6C123.087 20.7833 122.646 21.0417 122.229 21.375C121.812 21.7083 121.446 22.1 121.129 22.55C120.829 23 120.604 23.4917 120.454 24.025V32H118.754V13.75H120.454V21.925C120.971 20.9417 121.687 20.1667 122.604 19.6C123.521 19.0333 124.512 18.75 125.579 18.75C126.329 18.75 126.962 18.8917 127.479 19.175C127.996 19.4417 128.421 19.825 128.754 20.325C129.087 20.8083 129.329 21.4 129.479 22.1C129.629 22.7833 129.704 23.5417 129.704 24.375V32ZM138.879 32.25C137.929 32.25 137.062 32.075 136.279 31.725C135.496 31.3583 134.812 30.8667 134.229 30.25C133.662 29.6333 133.221 28.9167 132.904 28.1C132.587 27.2833 132.429 26.425 132.429 25.525C132.429 24.6083 132.587 23.7417 132.904 22.925C133.237 22.1083 133.687 21.3917 134.254 20.775C134.837 20.1583 135.521 19.6667 136.304 19.3C137.087 18.9333 137.946 18.75 138.879 18.75C139.812 18.75 140.671 18.9333 141.454 19.3C142.254 19.6667 142.937 20.1583 143.504 20.775C144.087 21.3917 144.537 22.1083 144.854 22.925C145.187 23.7417 145.354 24.6083 145.354 25.525C145.354 26.425 145.196 27.2833 144.879 28.1C144.562 28.9167 144.112 29.6333 143.529 30.25C142.962 30.8667 142.279 31.3583 141.479 31.725C140.696 32.075 139.829 32.25 138.879 32.25ZM134.154 25.55C134.154 26.2833 134.279 26.9667 134.529 27.6C134.779 28.2167 135.112 28.7667 135.529 29.25C135.962 29.7167 136.462 30.0833 137.029 30.35C137.612 30.6167 138.229 30.75 138.879 30.75C139.529 30.75 140.137 30.6167 140.704 30.35C141.287 30.0667 141.796 29.6917 142.229 29.225C142.662 28.7417 143.004 28.1833 143.254 27.55C143.504 26.9167 143.629 26.2333 143.629 25.5C143.629 24.7833 143.504 24.1083 143.254 23.475C143.004 22.825 142.662 22.2667 142.229 21.8C141.796 21.3167 141.287 20.9417 140.704 20.675C140.137 20.3917 139.529 20.25 138.879 20.25C138.229 20.25 137.621 20.3917 137.054 20.675C136.487 20.9417 135.987 21.3167 135.554 21.8C135.121 22.2833 134.779 22.85 134.529 23.5C134.279 24.1333 134.154 24.8167 134.154 25.55ZM152.272 32.25C150.856 32.25 149.797 31.7833 149.097 30.85C148.414 29.9 148.072 28.4917 148.072 26.625V18.975H149.772V26.325C149.772 29.275 150.781 30.75 152.797 30.75C153.297 30.75 153.789 30.6667 154.272 30.5C154.756 30.3333 155.197 30.0917 155.597 29.775C156.014 29.4583 156.381 29.0833 156.697 28.65C157.031 28.2167 157.297 27.725 157.497 27.175V18.975H159.197V29.8C159.197 30.2667 159.397 30.5 159.797 30.5V32C159.597 32.0333 159.431 32.05 159.297 32.05C159.181 32.05 159.097 32.05 159.047 32.05C158.647 32.0333 158.322 31.8917 158.072 31.625C157.822 31.3583 157.697 31 157.697 30.55V29.05C157.131 30.0667 156.356 30.8583 155.372 31.425C154.406 31.975 153.372 32.25 152.272 32.25ZM167.366 32.25C166.349 32.25 165.358 32.0833 164.391 31.75C163.424 31.4167 162.591 30.9333 161.891 30.3L162.666 29.15C163.399 29.75 164.141 30.2 164.891 30.5C165.658 30.8 166.474 30.95 167.341 30.95C168.391 30.95 169.224 30.7417 169.841 30.325C170.474 29.8917 170.791 29.2833 170.791 28.5C170.791 28.1333 170.708 27.8333 170.541 27.6C170.374 27.35 170.124 27.1333 169.791 26.95C169.474 26.7667 169.066 26.6083 168.566 26.475C168.083 26.325 167.516 26.175 166.866 26.025C166.116 25.8417 165.466 25.6583 164.916 25.475C164.366 25.2917 163.908 25.0833 163.541 24.85C163.191 24.6167 162.924 24.3333 162.741 24C162.574 23.65 162.491 23.2167 162.491 22.7C162.491 22.05 162.616 21.475 162.866 20.975C163.133 20.475 163.483 20.0667 163.916 19.75C164.366 19.4167 164.883 19.1667 165.466 19C166.066 18.8333 166.699 18.75 167.366 18.75C168.366 18.75 169.274 18.9167 170.091 19.25C170.908 19.5667 171.566 19.9917 172.066 20.525L171.241 21.525C170.758 21.025 170.166 20.65 169.466 20.4C168.783 20.15 168.066 20.025 167.316 20.025C166.866 20.025 166.449 20.075 166.066 20.175C165.683 20.2583 165.341 20.4 165.041 20.6C164.758 20.8 164.533 21.0583 164.366 21.375C164.199 21.675 164.116 22.0333 164.116 22.45C164.116 22.8 164.174 23.0833 164.291 23.3C164.408 23.5167 164.599 23.7083 164.866 23.875C165.133 24.025 165.466 24.1667 165.866 24.3C166.283 24.4167 166.783 24.5417 167.366 24.675C168.199 24.875 168.933 25.075 169.566 25.275C170.199 25.475 170.724 25.7083 171.141 25.975C171.574 26.2417 171.899 26.5667 172.116 26.95C172.333 27.3333 172.441 27.8 172.441 28.35C172.441 29.55 171.983 30.5 171.066 31.2C170.149 31.9 168.916 32.25 167.366 32.25ZM180.849 32.25C179.899 32.25 179.024 32.075 178.224 31.725C177.44 31.3583 176.757 30.8667 176.174 30.25C175.59 29.6167 175.132 28.8917 174.799 28.075C174.482 27.2583 174.324 26.3833 174.324 25.45C174.324 24.5333 174.482 23.675 174.799 22.875C175.132 22.0583 175.582 21.35 176.149 20.75C176.732 20.1333 177.424 19.65 178.224 19.3C179.024 18.9333 179.89 18.75 180.824 18.75C181.774 18.75 182.64 18.9333 183.424 19.3C184.224 19.65 184.907 20.1333 185.474 20.75C186.04 21.3667 186.482 22.075 186.799 22.875C187.115 23.675 187.274 24.525 187.274 25.425C187.274 25.5583 187.274 25.6917 187.274 25.825C187.274 25.9583 187.265 26.05 187.249 26.1H176.099C176.149 26.8 176.307 27.45 176.574 28.05C176.857 28.6333 177.215 29.1417 177.649 29.575C178.082 30.0083 178.574 30.35 179.124 30.6C179.69 30.8333 180.29 30.95 180.924 30.95C181.34 30.95 181.757 30.8917 182.174 30.775C182.59 30.6583 182.974 30.5 183.324 30.3C183.674 30.1 183.99 29.8583 184.274 29.575C184.557 29.275 184.774 28.95 184.924 28.6L186.399 29C186.199 29.4833 185.915 29.925 185.549 30.325C185.182 30.7083 184.757 31.05 184.274 31.35C183.79 31.6333 183.257 31.85 182.674 32C182.09 32.1667 181.482 32.25 180.849 32.25ZM185.649 24.8C185.599 24.1 185.432 23.4667 185.149 22.9C184.882 22.3167 184.532 21.8167 184.099 21.4C183.682 20.9833 183.19 20.6583 182.624 20.425C182.074 20.1917 181.482 20.075 180.849 20.075C180.215 20.075 179.615 20.1917 179.049 20.425C178.482 20.6583 177.982 20.9833 177.549 21.4C177.132 21.8167 176.79 22.3167 176.524 22.9C176.274 23.4833 176.124 24.1167 176.074 24.8H185.649Z" fill="#3A4241"/>
<path d="M31.355 8.82035C30.3268 11.3095 28.0541 12.9329 28.0541 15.5303C28.0541 18.8853 31.842 20.6169 31.842 24.7294C31.9502 26.461 31.3009 28.1926 30.0022 29.5455C27.513 32.0346 23.5087 32.0346 21.0195 29.5455C19.7208 28.2468 19.0714 26.461 19.1797 24.7294C19.1797 20.6169 22.9675 18.9394 22.9675 15.5303C22.9675 12.9329 20.6948 11.3095 19.6667 8.82035C19.6126 8.65801 19.5584 8.49567 19.5043 8.33333C19.5043 8.27922 19.5043 8.27922 19.4502 8.22511C19.3961 8.06277 19.342 7.90043 19.342 7.7381C19.342 7.68398 19.342 7.68398 19.342 7.62987C19.2879 7.46753 19.2879 7.25108 19.2338 7.08874V7.03463C19.2338 6.81818 19.1797 6.65584 19.1797 6.43939C19.1797 2.81385 21.9935 0 25.5108 0C29.0281 0 31.842 2.81385 31.842 6.33117C31.842 6.54762 31.842 6.76407 31.7879 6.92641V6.98052C31.7879 7.19697 31.7338 7.35931 31.6797 7.52164C31.6797 7.57576 31.6797 7.57576 31.6797 7.62987C31.6255 7.79221 31.6255 7.95455 31.5714 8.11688C31.5714 8.171 31.5714 8.171 31.5173 8.22511C31.4632 8.44156 31.4091 8.65801 31.355 8.82035ZM41.6364 22.1861C45.1537 22.1861 47.9675 19.3723 47.9675 15.855C47.9675 12.3377 45.1537 9.52381 41.6364 9.52381C38.119 9.52381 35.3052 12.3377 35.3052 15.855C35.3052 19.3182 38.1732 22.1861 41.6364 22.1861ZM41.6364 27.9762C38.119 27.9762 35.3052 30.79 35.3052 34.3074C35.3052 37.8247 38.119 40.6385 41.6364 40.6385C45.1537 40.6385 47.9675 37.8247 47.9675 34.3074C48.0216 30.8442 45.1537 27.9762 41.6364 27.9762ZM28.5411 38.0952C24.9697 36.039 21.6147 38.474 18.6926 36.7965C16.6364 35.6061 16.2035 33.171 14.9048 31.1147C13.8225 28.9502 11.8745 27.381 11.8745 25C11.8745 22.4026 14.1472 20.7792 15.1753 18.29C15.2294 18.1277 15.2835 17.9654 15.3377 17.803C15.3377 17.7489 15.3377 17.7489 15.3918 17.6948C15.4459 17.5325 15.5 17.3701 15.5 17.2078C15.5 17.1537 15.5 17.1537 15.5 17.0996C15.5541 16.9372 15.5541 16.7208 15.6082 16.5584V16.5043C15.6082 16.2879 15.6623 16.1255 15.6623 15.9091C15.6623 12.3918 12.8485 9.57792 9.33117 9.57792C5.81385 9.4697 3 12.3377 3 15.8009C3 16.0173 3 16.2338 3.05411 16.3961V16.4502C3.05411 16.6667 3.10823 16.829 3.16234 16.9913C3.16234 17.0455 3.16234 17.0455 3.16234 17.0996C3.21645 17.2619 3.21645 17.4242 3.27056 17.5866C3.27056 17.6407 3.27056 17.6407 3.32468 17.6948C3.37879 17.8571 3.4329 18.0195 3.48701 18.1818C4.51515 20.7792 6.78788 22.4026 6.78788 25C6.78788 28.355 3 30.0866 3 34.1991C3 34.2532 3 34.3074 3 34.3615C3 36.7424 4.35281 38.8528 6.30087 39.9351C9.87229 41.9913 13.2273 39.5563 16.1494 41.2338C19.0714 42.9113 18.6385 47.0779 22.21 49.0801C23.184 49.6753 24.3203 50 25.5108 50C29.0281 50 31.842 47.1861 31.842 43.6688C31.842 41.2338 30.4892 39.1775 28.5411 38.0952Z" fill="#826F5F"/>
</svg>
